<?xml version="1.0" encoding="UTF-8"?>
<svg width="32px" height="32px" viewBox="0 0 32 32" version="1.1" xmlns="http://www.w3.org/2000/svg" xmlns:xlink="http://www.w3.org/1999/xlink">
    <!-- Generator: Sketch 49.1 (51147) - http://www.bohemiancoding.com/sketch -->
    <title>ic_twitter</title>
    <desc>Created with Sketch.</desc>
    <defs></defs>
    <g id="Page-1" stroke="none" stroke-width="1" fill="none" fill-rule="evenodd" fill-opacity="0.5">
        <g id="2B" transform="translate(-1219.000000, -895.000000)" fill="#FFFFFF" fill-rule="nonzero">
            <path d="M1235,927 C1226.16344,927 1219,919.836556 1219,911 C1219,902.163444 1226.16344,895 1235,895 C1243.83656,895 1251,902.163444 1251,911 C1251,919.836556 1243.83656,927 1235,927 Z M1243.53333,905.266667 C1242.93333,905.6 1242.2,905.8 1241.53333,905.866667 C1242.26667,905.4 1242.8,904.666667 1243.06667,903.8 C1242.4,904.2 1241.66667,904.533333 1240.8,904.733333 C1240.13333,904 1239.26667,903.533333 1238.26667,903.533333 C1236.33333,903.533333 1234.73333,905.2 1234.73333,907.333333 C1234.73333,907.6 1234.73333,907.933333 1234.8,908.2 C1231.86667,908.066667 1229.26667,906.533333 1227.53333,904.266667 C1227.2,904.8 1227.06667,905.466667 1227.06667,906.2 C1227.06667,907.533333 1227.66667,908.666667 1228.6,909.333333 C1228,909.333333 1227.46667,909.133333 1227,908.866667 C1227,908.866667 1227,908.933333 1227,908.933333 C1227,910.733333 1228.2,912.266667 1229.8,912.666667 C1229.53333,912.733333 1229.2,912.8 1228.86667,912.8 C1228.66667,912.8 1228.4,912.8 1228.2,912.733333 C1228.66667,914.266667 1229.93333,915.333333 1231.46667,915.333333 C1230.26667,916.333333 1228.73333,916.933333 1227.13333,916.933333 C1226.86667,916.933333 1226.6,916.933333 1226.26667,916.866667 C1227.8,917.933333 1229.66667,918.6 1231.66667,918.6 C1238.13333,918.6 1241.66667,912.866667 1241.66667,907.866667 C1241.66667,907.733333 1241.66667,907.533333 1241.66667,907.4 C1242.46667,906.733333 1243.06667,906.066667 1243.53333,905.266667 Z" id="ic_twitter"></path>
        </g>
    </g>
</svg>