<?xml version="1.0" encoding="UTF-8"?>
<svg width="207px" height="43px" viewBox="0 0 207 43" version="1.1" xmlns="http://www.w3.org/2000/svg" xmlns:xlink="http://www.w3.org/1999/xlink">
    <!-- Generator: Sketch 49.1 (51147) - http://www.bohemiancoding.com/sketch -->
    <title>comming soon</title>
    <desc>Created with Sketch.</desc>
    <defs></defs>
    <g id="Page-1" stroke="none" stroke-width="1" fill="none" fill-rule="evenodd">
        <g id="2B" transform="translate(-702.000000, -669.000000)" fill="#F5E05B">
            <g id="comming-soon" transform="translate(702.000000, 669.000000)">
                <path d="M155.3838,13.3389 C154.7838,14.7669 153.8468,16.1879 152.6898,17.3939 C152.1828,17.9869 151.0848,18.8969 150.0498,18.3459 C149.4308,18.0349 148.9558,17.3189 148.6498,16.3909 C148.4018,15.5509 148.1718,14.0789 148.5398,11.9539 C148.9798,9.6279 150.1438,8.0819 151.9438,7.3779 C152.5388,7.1109 153.1048,6.9929 153.5338,6.9409 L153.7728,6.9109 C153.7938,7.4889 154.1448,7.9779 154.7038,8.1989 C155.4178,8.4989 155.8208,9.0289 156.0108,9.7799 C156.2168,10.6739 155.9878,11.9589 155.3838,13.3389 M158.8338,9.1439 C158.5028,7.6359 157.6368,6.4849 156.2928,5.7789 C156.2928,5.7789 156.2868,5.7329 156.3288,5.6789 C156.4318,4.9409 155.9038,4.1839 155.1648,4.0799 C152.4408,3.5449 150.3978,3.8439 148.5488,4.9419 C146.8858,5.9679 145.4838,7.5419 143.5788,9.7589 L143.3218,10.0319 C143.2508,10.1149 143.2178,10.2149 143.1688,10.3089 C142.1078,11.4639 140.6698,12.3429 138.9208,13.5709 C139.0298,12.8809 139.0848,12.1489 139.0988,11.4699 C139.2778,8.5949 138.6688,6.3969 137.3208,4.8689 C136.2038,3.6519 135.0618,3.4049 134.8118,3.3399 C134.4128,3.2429 133.9478,3.3979 133.5968,3.6819 C133.2918,3.9609 133.1008,4.3719 133.1058,4.8069 C133.1118,4.8539 133.1508,5.9609 132.9388,7.3899 C132.7578,8.6699 132.3018,10.4669 131.2918,11.7019 C130.7908,12.3449 130.8488,13.2079 131.4958,13.7569 C132.0908,14.2649 132.9948,14.1529 133.5028,13.5589 C134.8878,11.8419 135.5298,9.5859 135.7958,7.8129 C136.1278,8.5459 136.3158,9.6839 136.2238,11.2909 C136.1548,12.7009 136.0198,14.3619 135.6708,15.8559 C134.3348,16.7939 133.0948,17.7199 132.1228,18.4679 C130.6678,19.6129 129.4878,20.6289 129.8408,21.9399 C129.9238,22.2199 130.2738,23.0959 131.5888,23.1759 C132.0768,23.2129 132.5118,23.2079 132.8928,23.1609 C134.0358,23.0209 135.0438,22.5589 135.8718,21.8279 C137.0058,20.8179 137.7408,19.3249 138.2568,17.6179 C141.2358,15.4889 144.3378,13.6729 145.6458,11.8519 C145.3368,13.8299 145.4278,15.7079 145.9028,17.2599 C146.4458,18.9339 147.4328,20.2639 148.7168,20.8799 C149.5438,21.3099 150.3818,21.4489 151.2398,21.3439 C152.4788,21.1919 153.7058,20.5569 154.8218,19.4039 C157.2988,16.7309 159.5398,12.5379 158.8338,9.1439" id="Fill-4"></path>
                <path d="M173.8213,11.0752 C173.2223,12.5032 172.2843,13.9242 171.1273,15.1302 C170.6203,15.7232 169.5223,16.6332 168.4873,16.0822 C167.8683,15.7712 167.3933,15.0552 167.0873,14.1272 C166.8393,13.2862 166.6093,11.8152 166.9773,9.6902 C167.4173,7.3642 168.5813,5.8182 170.3813,5.1142 C170.9763,4.8472 171.5423,4.7292 171.9713,4.6772 L172.2103,4.6472 C172.2313,5.2242 172.5833,5.7142 173.1413,5.9352 C173.8553,6.2342 174.2583,6.7652 174.4483,7.5152 C174.6543,8.4092 174.4253,9.6952 173.8213,11.0752 M174.7303,3.5152 C174.7303,3.5152 174.7243,3.4682 174.7663,3.4152 C174.8693,2.6772 174.3413,1.9192 173.6023,1.8162 C170.8783,1.2802 168.8353,1.5802 166.9863,2.6782 C165.3233,3.7042 163.9213,5.2782 162.0163,7.4952 L161.7603,7.7682 C161.2533,8.3622 161.3153,9.2732 161.9113,9.7812 C162.5103,10.3362 163.4213,10.2722 163.9283,9.6782 L164.0963,9.4642 C163.7643,11.4872 163.8553,13.4112 164.3403,14.9962 C164.8833,16.6702 165.8703,18.0002 167.1543,18.6152 C167.9813,19.0462 168.8193,19.1842 169.6773,19.0802 C170.9163,18.9282 172.1433,18.2932 173.2593,17.1402 C175.7363,14.4672 177.9783,10.2742 177.2713,6.8792 C176.9403,5.3722 176.0743,4.2212 174.7303,3.5152" id="Fill-6"></path>
                <path d="M106.8818,28.3379 C105.5538,31.3059 103.9638,34.1119 102.4768,36.1809 C101.7358,37.2389 101.1448,37.9409 100.6678,38.3859 C100.7038,38.2839 100.6928,38.1899 100.6808,38.0939 C100.7478,37.0699 100.9828,35.8319 101.2718,34.6359 C102.0218,31.6909 103.3138,29.2109 104.8758,27.7619 C105.7408,26.9299 106.6948,26.4259 107.7318,26.2019 C107.4858,26.9579 107.1868,27.6709 106.8818,28.3379 M100.8338,22.4059 L100.7858,22.4119 C100.7448,22.0789 100.7108,21.4059 101.0168,20.3529 C101.0908,20.1019 101.1948,19.8139 101.3208,19.5029 C101.7288,18.7579 102.0128,18.1729 102.1848,17.7959 C102.6568,17.0059 103.2758,16.1299 104.1068,15.1859 C106.1888,12.8509 107.7508,12.1749 108.7508,12.0529 L108.9418,12.0289 C109.1378,12.0529 109.2798,12.0349 109.4298,12.0659 C106.2818,16.3689 102.3068,21.4029 100.8338,22.4059 M113.6948,24.3579 C112.9818,24.0589 112.2748,23.8069 111.5708,23.6029 C113.3118,17.2959 114.2498,10.3609 114.2978,9.9689 C114.3648,9.3319 113.9968,8.6999 113.3848,8.4369 C112.7778,8.2209 112.0748,8.4039 111.6568,8.9389 C111.5378,9.1479 111.3758,9.4079 111.2098,9.6229 C110.6438,9.3539 109.8948,9.1549 108.9778,9.1709 C106.7088,9.2079 104.3658,10.6089 101.9378,13.2749 C101.1748,14.1429 100.5698,14.9659 100.0708,15.7389 C99.9728,15.8449 99.8838,15.9619 99.8178,16.0999 C99.8098,16.1099 99.7698,16.1929 99.7138,16.3109 C99.3558,16.9139 99.0698,17.4749 98.8418,17.9909 C98.5458,18.5199 98.1898,19.1239 97.7558,19.7859 C95.6468,23.0919 94.6218,23.4109 94.4788,23.4289 L94.4248,23.3869 C93.5578,22.6229 93.7888,20.5639 94.0068,18.7959 C94.1528,17.6169 94.2558,16.4919 94.1388,15.5389 C93.8398,13.4959 92.5128,12.9339 91.7698,12.7829 C90.5378,12.5959 89.1668,13.2479 87.4368,14.9109 C86.4818,15.8019 85.3778,17.0499 84.1658,18.6019 C84.1898,18.4049 84.2088,18.1609 84.2798,17.9589 C84.3888,17.2689 84.4198,16.7329 84.3608,16.2559 C84.2748,15.1539 83.7278,14.6419 83.3118,14.4019 C81.7538,13.5289 79.8518,14.9719 78.3298,16.3679 C77.4908,17.1389 76.7868,17.8919 76.4178,18.3029 C76.2958,18.4009 76.1888,18.5229 76.1028,18.6649 C76.0178,18.7749 75.9508,18.8929 75.9008,19.0159 C75.5298,19.6119 74.6658,20.9209 73.5598,22.4179 C72.0728,24.4869 71.0828,25.4799 70.5098,25.9369 C70.4808,25.6979 70.4928,25.4059 70.5418,25.0139 C70.6148,24.0369 70.7548,22.8119 70.9008,21.6329 C71.1178,20.2519 71.2818,18.8289 71.3318,17.6619 C71.3588,16.3049 71.2778,14.8639 70.1838,14.2249 C69.5068,13.8239 68.4178,13.6189 66.9618,14.7659 C66.2998,15.2819 65.6198,16.0419 64.8678,17.0049 C63.6078,18.5629 62.6038,20.2339 62.5678,20.3339 C62.5178,20.4189 62.4778,20.5059 62.4468,20.5959 C62.1588,21.1679 61.3918,22.5969 60.5118,24.0679 C59.5198,25.8349 58.7738,26.8459 58.3078,27.3859 L58.2728,27.1009 C58.1848,26.3859 58.1218,25.4749 58.1058,24.5579 C57.9278,21.5329 57.7948,19.6629 56.7608,18.7269 C56.3268,18.3439 55.8208,18.1639 55.2918,18.1809 C54.3328,18.2499 53.4028,18.9449 52.3688,20.3779 C51.7478,21.2279 51.0198,22.3809 50.2718,23.7779 C50.0908,22.3019 49.8378,21.0269 49.5298,20.0979 C49.2988,19.3999 49.0388,18.8529 48.6938,18.4109 C48.0648,17.6169 47.3568,17.3659 46.8208,17.3349 C45.4458,17.1649 44.0868,18.2999 42.2108,21.1419 C42.0488,21.4029 41.8458,21.7179 41.6848,21.9799 C41.6378,21.5989 41.4958,21.2299 41.3118,20.9129 C40.8258,20.1029 40.0888,19.6119 39.2138,19.5749 C38.0938,19.5189 36.7708,20.1649 35.2618,21.6559 C34.3128,22.5949 33.4528,23.8609 33.4048,23.8669 C32.9508,24.5029 33.0988,25.3069 33.7398,25.8089 C34.3768,26.2629 35.4008,25.9429 35.8548,25.3069 C35.9028,25.3009 36.4878,24.5519 37.2158,23.7859 C38.0808,22.9539 38.5758,22.6509 38.8498,22.5219 C38.8788,22.7599 38.8958,23.2889 38.5898,24.3429 C38.2478,25.4969 37.6918,26.8709 37.1588,28.0489 C36.1718,30.2489 35.7228,31.3199 35.9348,32.2609 C36.0648,32.9219 36.5578,33.3939 37.1948,33.4599 C37.3428,33.4899 37.4918,33.5209 37.6348,33.5029 C38.3018,33.4209 38.7148,32.8389 38.8868,32.6719 C39.0488,32.4109 39.2568,32.1439 39.4968,31.7269 C39.8908,31.0019 40.4528,30.0629 41.0388,28.9259 C41.9838,27.1659 43.2148,24.9839 44.3018,23.2059 C45.4788,21.3689 46.2068,20.6029 46.5108,20.3229 C46.7598,20.7759 47.2398,21.9259 47.4708,24.9929 C47.6088,27.2969 47.5388,29.4829 47.5448,29.5289 C47.5308,30.2079 47.9938,30.8289 48.6428,30.9909 C49.3398,31.1479 50.0188,30.7739 50.2818,30.1609 C50.3238,30.1079 51.2688,27.9599 52.4468,25.7359 C53.6728,23.5059 54.4908,22.2929 54.9978,21.6989 L55.0448,22.0799 C55.1378,22.8429 55.1598,23.8069 55.2238,24.7179 C55.2748,25.9209 55.3318,27.1709 55.5018,28.1659 C55.6318,28.8269 55.7848,29.2919 55.9748,29.6549 C56.4848,30.6559 57.2348,30.8549 57.6748,30.8979 C57.8178,30.8799 57.9668,30.9099 58.0618,30.8989 C59.1098,30.7699 59.9688,29.8909 60.6018,29.1359 C61.2348,28.3809 61.9278,27.3279 62.7348,26.0209 C63.7368,24.3499 64.6208,22.6629 64.9768,21.9559 C65.0108,21.9119 65.0428,21.8649 65.0708,21.8169 C65.0658,21.7689 65.7888,20.5669 66.7438,19.2899 C67.4848,18.2319 68.0868,17.6259 68.4808,17.2869 C68.4568,17.4839 68.4378,17.7279 68.4318,18.0669 C68.3518,18.9949 68.2068,20.1739 68.0488,21.2569 C67.5528,25.0899 67.2978,27.3469 68.3138,28.5269 C68.7118,29.0109 69.2228,29.2369 69.8058,29.2629 C69.9548,29.2929 70.0498,29.2809 70.1928,29.2639 C71.0508,29.1579 71.9508,28.6119 73.0248,27.5139 C73.8068,26.7889 74.6898,25.7129 75.6868,24.3819 C76.9038,22.7839 77.8278,21.3259 78.2708,20.6139 C78.3158,20.5689 78.3588,20.5219 78.3988,20.4699 C78.3988,20.4699 78.9238,19.6319 79.8728,18.6929 C80.5238,18.0809 81.0658,17.7729 81.4238,17.5349 C81.2788,18.3269 81.0078,19.6659 80.3068,21.8319 C79.5808,24.1929 78.7788,26.3229 78.7788,26.3229 C78.5278,27.0309 78.8178,27.8169 79.4838,28.1229 C79.7388,28.2359 80.0368,28.2969 80.3218,28.2619 C80.7518,28.2089 81.1088,27.9719 81.3538,27.6039 C81.3958,27.5499 83.2958,24.5119 85.5828,21.4739 C89.3678,16.4639 90.8758,15.7459 91.2038,15.6569 C91.2628,15.7469 91.2918,15.9849 91.2978,16.4199 C91.3198,16.9969 91.2108,17.6879 91.1618,18.4679 C90.8708,20.8249 90.5548,23.7659 92.5158,25.5559 C93.2228,26.1939 94.1208,26.4229 95.0688,26.2579 C96.0858,26.0409 97.1368,25.2879 98.2888,23.9629 C98.3998,24.1799 98.5248,24.3839 98.6798,24.5569 C99.1848,25.1239 99.8508,25.4289 100.5768,25.4369 C101.2018,25.4079 101.8518,25.1829 102.4778,24.7679 C102.9248,24.4709 104.3978,23.4679 109.4368,16.8529 C109.8138,16.3709 110.1478,15.9429 110.4758,15.4679 C110.0418,17.8419 109.4168,20.6269 108.7208,23.2279 C108.1908,23.2439 107.7138,23.3029 107.2428,23.4079 C105.4448,23.7269 103.8648,24.6459 102.4448,26.0769 C99.9628,28.7029 98.8228,32.4219 98.3428,34.4149 C97.8438,36.6529 97.4978,39.7419 98.1968,41.1079 C98.5938,41.9779 99.3978,42.2169 99.9688,42.1469 C100.6838,42.0599 101.4948,41.5719 102.4068,40.7349 C103.1058,40.1169 103.8628,39.2019 104.6938,38.0849 C106.2998,35.8089 108.0088,32.7929 109.5398,29.5099 C109.9598,28.5879 110.3548,27.4759 110.7498,26.3629 C111.2978,26.4889 111.9038,26.7049 112.5168,26.9689 C113.2358,27.3159 114.1118,26.9659 114.4108,26.2519 C114.7588,25.5319 114.4148,24.7039 113.6948,24.3579" id="Fill-13"></path>
                <path d="M27.2256,29.0742 C26.6276,30.5022 25.6896,31.9232 24.5316,33.1292 C24.0246,33.7232 22.9276,34.6322 21.8926,34.0822 C21.2736,33.7712 20.7986,33.0552 20.4916,32.1262 C20.2436,31.2862 20.0146,29.8152 20.3826,27.6902 C20.8216,25.3632 21.9866,23.8182 23.7856,23.1132 C24.3816,22.8462 24.9476,22.7282 25.3766,22.6772 L25.6146,22.6472 C25.6376,23.2242 25.9876,23.7142 26.5466,23.9352 C27.2606,24.2342 27.6636,24.7642 27.8526,25.5152 C28.0586,26.4092 27.8296,27.6942 27.2256,29.0742 M30.6766,24.8792 C30.3466,23.3722 29.4796,22.2202 28.1356,21.5152 C28.1356,21.5152 28.1296,21.4682 28.1716,21.4142 C28.2736,20.6772 27.7466,19.9192 27.0076,19.8162 C24.2826,19.2802 22.2396,19.5792 20.3916,20.6772 C18.7276,21.7032 17.3256,23.2782 15.4216,25.4942 L15.1646,25.7672 C15.0456,25.9072 14.9636,26.0662 14.9076,26.2322 C14.0796,27.2762 12.3506,29.3402 10.3716,31.2412 C8.8206,32.7852 7.4546,33.8722 6.2806,34.5482 C5.1956,35.1652 4.3506,35.3652 3.9336,35.1262 C3.3626,34.8092 3.0126,34.3202 2.9186,33.5582 C2.7256,32.3732 3.0986,30.6822 3.9356,28.8392 C4.6956,27.1502 5.7946,25.4682 6.9046,24.2672 C7.4596,23.6672 8.0016,23.3582 8.4906,23.3952 C9.3236,23.4862 10.1606,24.3992 10.3926,24.7102 C11.7106,26.3862 13.6846,24.7402 12.7596,23.1132 C12.5816,22.8452 11.0616,20.7102 8.7166,20.5142 C7.7466,20.4882 6.2756,20.7182 4.7776,22.3032 C3.4526,23.7232 2.1916,25.6682 1.3246,27.6612 C0.5646,29.3492 -0.2504,31.7712 0.0726,34.0052 C0.3186,35.6182 1.1496,36.8712 2.5056,37.6722 C3.2306,38.0662 4.0226,38.2112 4.8796,38.1052 C6.9286,37.8532 9.3906,36.2462 12.4156,33.3112 C14.8086,30.9772 16.8146,28.4982 17.4836,27.6212 C17.1816,29.5862 17.2726,31.4522 17.7456,32.9952 C18.2886,34.6702 19.2746,35.9992 20.5586,36.6152 C21.3856,37.0462 22.2256,37.1842 23.0826,37.0792 C24.3216,36.9272 25.5486,36.2932 26.6646,35.1402 C29.1416,32.4672 31.3836,28.2742 30.6766,24.8792" id="Fill-10"></path>
                <path d="M68.6909,8.3633 C68.8809,8.3403 68.8749,8.6783 68.6299,8.6603 C67.8679,8.7543 67.3249,9.4493 67.4239,10.2593 C67.5179,11.0213 68.2189,11.6123 69.0289,11.5133 C69.8869,11.4083 70.6439,10.8803 71.1219,10.0473 C71.4809,9.4233 71.6309,8.6783 71.5379,7.9173 C71.3389,6.2973 70.0549,5.2943 68.5299,5.4813 C67.7199,5.5803 67.1769,6.2753 67.2759,7.0863 C67.3639,7.8013 67.9639,8.3553 68.6909,8.3633" id="Fill-8"></path>
                <path d="M205.5781,2.6777 C204.8581,2.3307 204.0241,2.6267 203.6781,3.3467 C203.6361,3.4007 202.9601,4.9827 201.6161,7.0327 C199.5071,10.3387 198.4811,10.6577 198.3391,10.6757 L198.2861,10.6337 C197.4181,9.8697 197.6491,7.8107 197.8661,6.0427 C198.0131,4.8647 198.1161,3.7397 197.9991,2.7867 C197.7001,0.7437 196.3741,0.1817 195.6301,0.0317 C194.3971,-0.1563 193.0261,0.4947 191.2961,2.1587 C190.3421,3.0497 189.2371,4.2977 188.0261,5.8487 C188.0501,5.6527 188.0681,5.4077 188.1411,5.2057 C188.2491,4.5157 188.2801,3.9807 188.2221,3.5037 C188.1351,2.4027 187.5881,1.8887 187.1721,1.6497 C185.6141,0.7777 183.7121,2.2197 182.1901,3.6147 C180.9741,4.7327 180.0421,5.8137 180.0001,5.8667 C179.4511,6.5147 179.5731,7.5157 180.1691,8.0227 C180.7631,8.5307 181.7571,8.3597 182.2591,7.7177 C182.2591,7.7177 182.7841,6.8787 183.7331,5.9407 C184.3841,5.3287 184.9261,5.0207 185.2841,4.7827 C185.1401,5.5737 184.8681,6.9137 184.1671,9.0787 C183.4411,11.4417 182.6391,13.5717 182.6391,13.5717 C182.3881,14.2797 182.6771,15.0657 183.3431,15.3697 C183.5991,15.4847 183.8961,15.5437 184.1821,15.5097 C184.6111,15.4567 184.9701,15.2197 185.2141,14.8507 C185.2561,14.7967 187.1551,11.7587 189.4421,8.7217 C193.2271,3.7107 194.7351,2.9937 195.0631,2.9057 C195.1231,2.9947 195.1521,3.2337 195.1571,3.6677 C195.1801,4.2447 195.0711,4.9357 195.0211,5.7157 C194.7311,8.0727 194.4151,11.0127 196.3761,12.8027 C197.0831,13.4417 197.9811,13.6697 198.9291,13.5047 C200.5301,13.1627 202.2131,11.5057 204.2441,8.3557 C205.5771,6.2087 206.2111,4.6797 206.2471,4.5787 C206.5941,3.8597 206.2981,3.0257 205.5781,2.6777" id="Fill-1"></path>
            </g>
        </g>
    </g>
</svg>